<?xml version="1.0" standalone="no"?>
<!DOCTYPE svg PUBLIC "-//W3C//DTD SVG 20010904//EN"
 "http://www.w3.org/TR/2001/REC-SVG-20010904/DTD/svg10.dtd">
<svg version="1.0" xmlns="http://www.w3.org/2000/svg"
 width="1100.000000pt" height="1100.000000pt" viewBox="0 0 1100.000000 1100.000000"
 preserveAspectRatio="xMidYMid meet">
<metadata>
Created by potrace 1.14, written by Peter Selinger 2001-2017
</metadata>
<g transform="translate(0.000000,1100.000000) scale(0.100000,-0.100000)"
fill="#000000" stroke="none">
<path d="M4960 10625 c-47 -8 -107 -16 -135 -19 -27 -3 -59 -8 -70 -10 -11 -2
-42 -7 -70 -10 -42 -6 -272 -38 -430 -60 -22 -3 -49 -8 -60 -10 -11 -3 -25 -5
-32 -5 -11 -1 -11 -31 0 -49 6 -8 19 -78 20 -104 1 -10 5 -18 9 -18 4 0 5 -9
3 -20 -2 -11 1 -20 6 -20 6 0 9 -6 6 -12 -2 -7 0 -21 4 -30 9 -17 22 -79 23
-110 0 -10 4 -18 9 -18 5 0 7 -9 4 -20 -3 -11 -1 -20 4 -20 5 0 8 -3 7 -7 -1
-5 1 -19 5 -33 20 -86 49 -208 52 -225 2 -11 4 -20 5 -20 1 0 3 -9 5 -21 3
-11 11 -47 19 -79 9 -31 13 -62 10 -66 -3 -5 0 -9 6 -9 7 0 10 -7 6 -15 -3 -8
-1 -15 5 -15 6 0 8 -4 5 -8 -3 -5 -1 -26 5 -47 6 -20 12 -45 14 -54 3 -9 12
-45 20 -81 9 -36 19 -74 21 -85 3 -11 7 -29 8 -40 2 -11 5 -21 6 -22 4 -4 6
-13 14 -66 l8 -48 52 6 c55 7 96 13 136 20 14 2 50 7 80 10 30 3 66 8 80 10
14 3 41 7 60 9 19 3 60 7 90 11 136 16 195 30 192 45 -2 8 -5 60 -7 115 -2 55
-4 106 -4 113 -1 13 -56 12 -166 -3 -16 -2 -66 -7 -109 -10 -44 -4 -101 -10
-128 -14 -27 -5 -50 -5 -53 -1 -5 8 -15 54 -20 90 -4 33 -25 159 -31 187 -3
18 1 23 28 27 42 7 109 15 184 22 33 3 84 9 114 13 30 4 67 6 81 6 25 -2 26 0
22 44 -2 25 -5 80 -6 121 -3 89 -10 103 -45 96 -15 -3 -54 -8 -87 -11 -33 -3
-76 -8 -95 -11 -53 -7 -149 -16 -199 -17 -47 -2 -44 -7 -55 73 -3 19 -8 47
-11 62 -8 38 -15 88 -18 118 -1 14 -6 28 -11 31 -13 10 34 18 199 34 33 3 80
8 105 11 25 2 70 7 100 9 81 8 123 15 129 21 7 7 7 84 0 84 -3 0 -6 7 -6 15 0
8 4 15 8 15 4 0 4 12 0 28 -4 15 -7 43 -6 62 1 31 -10 51 -25 49 -3 -1 -43 -7
-90 -14z"/>
<path d="M5929 10573 c-1 -27 -2 -37 -13 -108 -8 -52 -19 -149 -19 -172 -1
-13 -3 -23 -6 -23 -4 0 -7 -17 -8 -38 -1 -20 -4 -55 -8 -77 -3 -22 -8 -53 -10
-70 -12 -95 -16 -123 -21 -155 -2 -19 -7 -53 -9 -75 -6 -53 -13 -100 -15 -100
-1 0 -3 -18 -5 -40 -2 -22 -7 -58 -10 -80 -3 -22 -7 -47 -7 -55 0 -8 -4 -35
-8 -60 -7 -40 -15 -98 -26 -185 -12 -99 -13 -125 -5 -125 5 0 60 -9 122 -20
137 -24 125 -24 125 -2 1 9 4 28 7 42 3 14 9 36 12 50 3 14 7 36 9 50 2 14 9
43 15 65 10 41 22 98 25 125 1 9 5 21 10 28 4 6 5 12 3 12 -2 0 2 26 10 58 7
31 16 68 18 82 7 36 13 65 15 68 4 4 8 22 10 50 l2 27 8 -25 c13 -38 61 -212
66 -237 2 -12 9 -34 14 -48 5 -14 7 -25 4 -25 -4 0 -1 -6 5 -14 6 -8 11 -18
10 -22 -1 -5 1 -16 4 -24 5 -13 24 -80 33 -115 1 -5 9 -35 18 -65 8 -30 18
-66 21 -80 4 -14 9 -32 12 -40 3 -8 7 -20 8 -26 10 -43 19 -53 60 -65 25 -7
45 -18 45 -23 0 -5 3 -7 6 -4 3 3 40 -8 82 -24 42 -17 89 -34 103 -38 27 -8
27 -8 17 27 -5 20 -11 43 -13 52 -1 9 -8 34 -13 56 -6 22 -13 53 -16 68 -3 15
-12 51 -20 80 -8 29 -17 66 -20 82 -2 17 -5 30 -6 30 -1 0 -3 7 -5 15 -1 8
-13 58 -26 110 -13 52 -22 98 -21 103 1 4 -2 7 -7 7 -5 0 -7 9 -4 19 3 10 -1
30 -8 42 -7 13 -12 28 -11 32 1 5 -4 30 -12 57 -13 45 -13 50 3 69 10 12 23
21 29 21 6 0 17 6 24 13 8 6 23 17 33 24 44 26 153 97 210 134 33 22 68 42 78
45 9 4 17 10 17 14 0 4 14 13 30 20 17 7 30 16 30 20 0 4 18 15 40 25 22 10
40 22 40 27 0 4 7 8 15 8 8 0 15 5 15 10 0 6 5 10 10 10 6 0 36 17 67 38 38
25 51 38 40 40 -10 2 -17 8 -17 13 0 6 -3 8 -8 5 -4 -2 -32 6 -62 19 -30 13
-58 21 -62 19 -5 -3 -8 -1 -8 5 0 6 -7 8 -15 5 -8 -4 -15 -1 -15 6 0 6 -4 9
-9 5 -5 -3 -12 -1 -16 5 -4 6 -11 8 -16 5 -5 -4 -9 -2 -9 2 0 5 -10 9 -22 10
-11 1 -25 8 -29 15 -5 7 -9 10 -9 6 0 -4 -20 0 -45 9 -44 15 -45 14 -77 -12
-70 -57 -112 -91 -152 -125 -23 -19 -57 -46 -76 -60 -31 -24 -42 -33 -100 -83
-14 -12 -41 -34 -61 -49 -56 -41 -88 -69 -140 -121 l-48 -49 2 31 c1 17 4 31
7 31 3 0 6 9 7 20 1 12 9 54 18 94 9 40 18 81 20 92 2 10 4 19 5 19 2 0 5 14
13 60 12 62 18 90 23 107 3 10 7 29 10 43 2 14 7 37 10 53 3 15 8 41 11 59 6
38 10 37 -142 57 -16 3 -43 7 -60 10 -16 4 -46 9 -65 12 -19 2 -47 7 -62 10
-25 5 -28 3 -29 -23z"/>
<path d="M2849 10003 c-2 -4 -49 -35 -104 -68 -55 -32 -102 -62 -105 -65 -3
-4 -20 -13 -37 -21 -18 -8 -33 -19 -33 -26 0 -17 22 -63 30 -63 4 0 13 -13 20
-30 7 -16 16 -30 21 -30 5 0 9 -7 9 -15 0 -8 5 -15 10 -15 6 0 10 -6 10 -13 0
-8 9 -22 20 -32 11 -10 20 -22 20 -27 0 -4 16 -30 35 -57 19 -26 35 -53 35
-59 0 -6 4 -12 8 -14 4 -1 39 -52 77 -112 39 -60 78 -117 88 -127 9 -11 17
-21 17 -25 0 -3 18 -32 40 -64 22 -32 40 -63 40 -69 0 -5 4 -11 8 -13 10 -4
72 -96 72 -108 0 -4 3 -10 8 -12 9 -4 142 -206 141 -214 0 -4 3 -10 8 -13 5
-3 17 -19 27 -35 10 -16 21 -25 25 -20 3 5 65 38 136 74 72 36 132 67 135 70
5 6 74 42 210 112 36 18 67 36 70 39 3 3 13 8 23 12 19 7 23 37 6 54 -6 6 -12
17 -13 24 -4 17 -13 43 -31 84 -8 17 -18 43 -24 58 -11 27 -34 36 -46 17 -4
-6 -11 -8 -16 -5 -5 4 -9 3 -9 -2 0 -4 -15 -14 -32 -22 -18 -8 -97 -45 -175
-83 -136 -67 -163 -74 -163 -42 0 8 -4 14 -8 14 -5 0 -15 16 -22 35 -8 20 -20
41 -27 47 -7 5 -10 14 -7 19 3 5 0 9 -5 9 -6 0 -11 5 -11 10 0 6 -11 28 -24
49 -14 21 -22 42 -19 45 4 3 2 6 -4 6 -10 0 -38 49 -35 63 1 4 -2 7 -8 7 -5 0
-10 4 -10 9 0 5 -35 71 -79 147 -43 77 -90 162 -105 189 -14 28 -42 77 -61
110 -19 33 -39 71 -45 85 -6 13 -14 27 -18 30 -4 3 -16 23 -27 44 -19 39 -39
55 -46 39z"/>
<path d="M7824 9779 c-11 -3 -22 -5 -26 -2 -5 2 -8 -1 -8 -8 0 -7 -3 -10 -6
-6 -10 10 -77 -28 -120 -70 -34 -33 -111 -143 -100 -143 2 0 -2 -19 -9 -42
-18 -64 -12 -163 15 -243 14 -39 27 -72 31 -75 3 -3 8 -12 12 -20 4 -8 20 -37
37 -65 139 -230 152 -344 45 -397 -17 -8 -46 -13 -65 -11 -19 2 -41 4 -47 5
-7 1 -13 5 -13 10 0 4 -3 7 -7 6 -22 -8 -201 141 -205 169 0 4 -11 24 -23 44
-13 19 -30 55 -38 80 -8 24 -18 44 -22 44 -4 0 -17 -16 -29 -37 -11 -20 -37
-62 -56 -95 -19 -32 -37 -62 -39 -68 -2 -5 -13 -22 -23 -37 -13 -19 -15 -28
-7 -28 7 0 10 -3 6 -6 -3 -4 -1 -12 6 -20 27 -30 37 -43 37 -49 0 -13 170
-171 170 -158 0 5 4 3 8 -2 14 -20 81 -65 96 -65 9 0 16 -4 16 -9 0 -5 8 -11
18 -14 9 -3 37 -13 62 -22 90 -34 150 -37 237 -14 34 9 65 14 68 11 3 -3 5 -1
5 4 0 5 16 18 35 28 19 11 35 24 35 29 0 6 2 8 5 5 10 -9 115 103 115 122 0 6
5 10 10 10 6 0 10 7 10 16 0 8 5 25 12 37 7 12 13 29 15 37 6 34 9 121 4 126
-3 3 -6 15 -6 27 -2 32 -16 79 -32 103 -7 11 -10 24 -6 28 4 4 3 10 -2 14 -14
10 -147 272 -138 272 4 0 2 5 -5 12 -7 7 -12 34 -12 61 0 41 5 53 30 78 16 17
34 28 40 24 5 -3 10 -2 10 4 0 15 73 5 118 -15 51 -24 113 -67 154 -107 67
-65 144 -180 153 -229 3 -12 6 -22 8 -24 7 -7 177 171 177 186 0 6 5 8 10 5
26 -16 -2 62 -30 85 -3 3 -13 15 -22 28 -30 43 -119 131 -206 203 -56 46 -185
117 -267 147 -61 22 -204 35 -241 21z"/>
<path d="M1475 8830 c-38 -50 -83 -105 -98 -123 -15 -18 -35 -44 -44 -59 -10
-16 -21 -28 -25 -28 -4 0 -8 -7 -8 -15 0 -8 -5 -15 -11 -15 -9 0 18 -38 101
-143 8 -11 21 -25 28 -33 7 -8 11 -14 8 -14 -3 0 7 -12 21 -27 14 -16 36 -44
48 -63 13 -19 35 -47 50 -62 14 -16 23 -28 20 -28 -4 0 0 -6 7 -14 32 -33 58
-67 58 -76 0 -5 6 -13 13 -17 6 -4 25 -27 41 -50 16 -24 33 -43 37 -43 5 0 9
-6 9 -14 0 -8 3 -16 8 -18 4 -1 27 -30 52 -63 25 -33 47 -62 50 -65 3 -3 17
-21 30 -40 14 -19 35 -46 47 -60 13 -14 23 -28 23 -32 0 -4 10 -18 23 -31 12
-13 31 -36 42 -52 11 -16 25 -33 30 -39 17 -18 129 -169 140 -188 9 -16 17 -9
55 53 25 39 62 97 83 130 22 35 35 65 30 72 -8 14 -40 49 -119 132 -90 95 -91
99 -58 138 16 18 38 45 49 61 21 30 42 55 81 99 13 15 22 27 18 27 -3 0 15 24
40 52 25 29 46 56 46 60 0 5 9 8 20 8 11 0 20 -4 20 -8 0 -6 52 -32 72 -36 3
0 10 -5 14 -9 11 -11 97 -50 107 -49 4 1 7 -3 7 -8 0 -6 8 -10 18 -10 10 0 23
-5 28 -10 7 -7 43 22 111 90 56 55 97 100 92 100 -6 0 -7 5 -4 11 4 6 1 9 -6
8 -8 -1 -54 16 -102 39 -49 23 -90 42 -92 42 -4 0 -59 25 -190 85 -38 18 -90
41 -115 52 -25 12 -67 31 -95 43 -27 12 -75 34 -105 48 -30 14 -57 27 -60 27
-3 1 -23 10 -45 20 -22 10 -42 19 -45 20 -3 0 -27 11 -55 24 -27 13 -74 34
-102 47 -177 81 -319 144 -324 144 -2 0 -35 -41 -74 -90z m290 -306 c17 -6 59
-23 95 -37 83 -32 104 -40 110 -41 3 -1 16 -8 30 -16 14 -7 27 -13 30 -12 8 3
94 -30 104 -40 6 -4 18 -8 28 -8 16 0 21 -18 8 -30 -3 -3 -21 -25 -40 -50 -19
-25 -39 -50 -45 -56 -5 -6 -17 -22 -25 -34 -8 -12 -23 -32 -34 -43 -10 -12
-25 -32 -33 -45 l-16 -22 -23 32 c-13 18 -27 38 -31 43 -5 6 -20 26 -33 45
-13 19 -30 41 -37 48 -7 7 -13 17 -13 21 0 4 -9 17 -20 29 -12 12 -18 22 -15
22 3 0 -3 9 -12 19 -33 37 -43 50 -43 61 0 5 -4 10 -8 10 -5 0 -18 17 -30 38
-11 21 -30 46 -42 57 -11 10 -20 23 -20 29 0 6 -9 17 -20 24 -11 7 -20 16 -20
21 0 5 28 -5 63 -22 34 -18 76 -37 92 -43z"/>
<path d="M9130 8755 c-17 -16 -78 -66 -133 -109 l-36 -29 34 -42 c33 -40 45
-75 27 -75 -9 0 -89 -59 -126 -92 -11 -10 -23 -18 -26 -18 -4 0 -16 -8 -28
-17 -54 -47 -63 -53 -71 -53 -5 0 -12 -7 -15 -16 -4 -9 -9 -14 -12 -11 -3 3
-17 -4 -30 -16 -14 -12 -33 -29 -44 -39 -10 -9 -21 -14 -24 -11 -3 4 -6 2 -6
-4 0 -5 -15 -18 -34 -28 -19 -11 -33 -23 -30 -27 3 -4 -2 -8 -11 -8 -8 0 -18
-7 -21 -15 -4 -8 -11 -15 -16 -15 -6 0 -23 -10 -38 -22 -15 -13 -40 -32 -55
-43 -16 -11 -34 -26 -41 -32 -7 -7 -17 -13 -23 -13 -6 0 -11 -4 -11 -8 0 -4
-14 -16 -31 -26 -30 -18 -31 -18 -47 5 -9 13 -16 26 -15 29 0 3 -5 11 -12 17
-11 10 -17 10 -29 -2 -8 -8 -17 -15 -20 -15 -6 0 -46 -32 -77 -62 -9 -9 -20
-14 -23 -10 -3 3 -6 0 -6 -6 0 -6 -9 -14 -20 -17 -11 -3 -20 -13 -20 -21 0
-16 25 -58 52 -88 10 -11 18 -25 18 -32 0 -7 4 -14 8 -16 5 -1 28 -32 52 -68
24 -36 47 -66 52 -68 4 -2 8 -8 8 -13 0 -5 12 -27 28 -48 28 -42 48 -45 83
-15 8 8 21 14 27 14 7 0 12 4 12 9 0 5 11 12 25 15 14 4 25 11 25 16 0 6 7 10
15 10 8 0 15 5 15 11 0 5 5 7 10 4 21 -13 22 27 1 55 -29 40 -27 54 14 76 19
10 35 22 35 27 0 4 4 6 9 3 4 -3 16 3 26 14 10 11 21 20 26 20 4 0 53 30 110
68 56 37 104 66 106 65 2 -2 11 4 21 13 9 9 44 32 77 53 97 60 196 123 254
162 30 20 61 35 68 32 8 -3 23 -23 33 -44 11 -21 24 -41 30 -44 10 -6 142 68
181 102 9 7 19 10 23 6 15 -15 -8 33 -28 58 -12 15 -37 50 -56 79 -19 28 -43
60 -52 71 -10 10 -15 19 -10 19 4 0 2 4 -3 8 -6 4 -35 44 -65 90 -30 45 -58
82 -62 82 -4 0 -8 4 -8 10 0 9 -69 111 -73 109 -1 0 -9 -7 -17 -14z"/>
<path d="M1060 6927 c-51 -27 -90 -90 -90 -147 0 -87 83 -170 170 -170 87 0
170 83 170 170 0 87 -83 170 -170 170 -20 0 -56 -10 -80 -23z"/>
<path d="M9360 6867 c-51 -27 -90 -90 -90 -147 0 -57 39 -120 90 -147 24 -13
60 -23 80 -23 57 0 120 39 147 90 13 24 23 60 23 80 0 57 -39 120 -90 147 -24
13 -60 23 -80 23 -20 0 -56 -10 -80 -23z"/>
<path d="M9092 5586 c-3 -6 -7 -24 -8 -41 -6 -94 -16 -202 -19 -212 -4 -13 18
-20 63 -19 17 1 32 -1 32 -4 0 -3 13 -5 28 -4 15 0 61 -3 102 -7 41 -5 111
-11 155 -14 44 -3 96 -8 115 -10 19 -3 67 -7 105 -10 39 -3 102 -8 140 -11 67
-6 134 -11 183 -13 21 -1 33 -21 12 -21 -6 0 -27 -11 -48 -25 -21 -14 -90 -46
-153 -71 -63 -26 -125 -51 -139 -57 -14 -6 -27 -11 -30 -12 -3 0 -16 -7 -30
-15 -14 -7 -27 -13 -30 -13 -7 1 -162 -60 -237 -93 -17 -8 -37 -14 -45 -14 -8
0 -18 -4 -23 -9 -12 -12 -185 -81 -201 -81 -7 0 -14 -4 -16 -8 -1 -4 -21 -14
-42 -22 -34 -13 -41 -21 -53 -65 -8 -28 -28 -92 -44 -144 -16 -52 -28 -95 -27
-96 2 -2 100 -35 218 -75 118 -39 224 -75 235 -80 11 -5 58 -21 105 -36 47
-15 90 -30 95 -33 6 -3 18 -7 29 -8 10 -2 33 -10 50 -17 17 -8 43 -17 58 -20
15 -3 40 -11 55 -18 15 -6 30 -12 33 -13 34 -10 105 -33 254 -84 98 -34 182
-61 186 -61 8 0 20 27 26 55 2 12 27 92 60 194 24 75 24 91 -2 91 -8 0 -22 4
-32 9 -9 5 -42 14 -72 21 -30 7 -74 18 -97 26 -23 7 -52 15 -65 18 -24 4 -173
44 -198 52 -8 3 -16 5 -17 5 -2 0 -17 5 -35 10 -66 20 -265 72 -338 88 -79 18
-80 22 -10 41 39 10 1013 491 1032 509 5 4 10 41 13 81 6 91 14 192 19 243 2
20 1 38 -3 38 -11 3 -111 8 -226 13 -309 13 -380 17 -384 21 -2 3 -10 0 -18
-6 -7 -6 -13 -8 -13 -3 0 5 -21 9 -48 10 -87 2 -605 24 -658 28 -19 1 -38 -2
-42 -8z"/>
<path d="M1408 5584 c-4 -3 -158 -15 -383 -29 -44 -2 -107 -7 -140 -10 -115
-10 -241 -18 -302 -19 -35 0 -63 -3 -63 -6 0 -3 -19 -6 -42 -6 -24 0 -83 -4
-133 -7 -49 -4 -124 -10 -165 -13 -76 -6 -93 -10 -86 -22 4 -7 13 -107 22
-232 7 -111 8 -113 57 -106 23 3 65 8 92 11 28 3 66 8 85 11 19 3 58 7 85 9
28 3 59 7 70 9 11 2 47 7 80 11 33 3 74 8 90 10 17 2 53 6 80 9 50 5 50 5 25
-11 -32 -22 -193 -190 -301 -314 -9 -11 -57 -63 -107 -117 -147 -158 -152
-164 -148 -192 3 -14 5 -25 6 -25 1 0 3 -8 5 -17 2 -10 15 -61 30 -115 79
-286 80 -287 93 -267 14 21 137 190 149 204 7 8 41 54 75 102 35 47 121 165
192 261 l128 175 62 -23 c115 -43 251 -97 283 -111 17 -8 34 -14 38 -14 4 0
21 -6 38 -14 18 -8 93 -37 167 -65 74 -29 143 -56 153 -61 22 -13 22 -4 -4 90
-11 41 -21 80 -23 85 -1 6 -10 40 -20 77 l-18 66 -67 27 c-36 15 -88 38 -116
50 -27 12 -115 48 -195 81 -80 32 -148 63 -152 69 -4 5 -8 7 -8 2 0 -4 -13 -1
-30 8 -16 9 -30 12 -30 8 0 -5 -4 -3 -8 3 -4 6 -31 19 -60 29 -29 9 -52 18
-50 20 2 2 28 6 58 10 30 3 66 8 80 10 14 2 54 7 90 10 36 4 72 8 80 10 8 1
47 6 85 10 39 4 79 9 90 11 21 4 130 16 157 18 10 0 15 7 13 18 -2 9 -7 63
-10 120 -7 94 -10 135 -14 148 -1 5 -78 9 -83 4z"/>
<path d="M1765 4096 c-38 -18 -86 -40 -107 -50 l-36 -17 24 -42 c21 -38 33
-79 18 -64 -3 3 -24 -5 -45 -19 -21 -13 -39 -21 -39 -18 0 4 -6 2 -12 -4 -7
-5 -92 -50 -188 -98 -96 -48 -178 -93 -182 -98 -4 -6 -8 -8 -8 -4 0 4 -75 -31
-166 -78 -183 -93 -175 -93 -205 -19 -23 57 -24 57 -127 9 -53 -25 -101 -49
-106 -54 -5 -5 5 -32 22 -62 17 -29 46 -82 65 -118 18 -36 44 -83 57 -105 13
-22 39 -69 58 -105 49 -93 80 -147 98 -175 l15 -24 92 60 c51 33 95 64 99 67
4 4 -8 30 -27 57 -19 28 -34 53 -35 56 0 6 28 24 162 104 9 5 43 26 75 45 32
19 65 38 73 42 8 4 55 33 104 63 49 30 93 55 97 55 5 0 9 4 9 9 0 5 12 14 28
20 15 6 39 19 54 29 14 9 46 29 70 43 23 14 59 36 79 48 l37 22 26 -46 c15
-25 29 -45 32 -45 12 0 194 122 194 130 0 4 -16 36 -35 70 -19 34 -35 63 -35
65 0 2 -22 42 -50 89 -27 47 -46 86 -42 86 4 0 2 4 -3 8 -6 4 -22 28 -35 55
-14 26 -27 47 -30 47 -3 -1 -36 -16 -75 -34z"/>
<path d="M8542 3787 c-37 -56 -72 -108 -79 -114 -6 -7 -33 -45 -59 -85 -26
-40 -50 -75 -54 -78 -3 -3 -9 -12 -15 -21 -5 -9 -36 -55 -67 -102 -32 -46 -58
-86 -58 -89 0 -3 78 -70 173 -148 94 -79 179 -151 188 -159 9 -9 25 -23 35
-31 84 -68 190 -156 194 -160 3 -3 88 -75 190 -160 102 -85 187 -157 190 -160
3 -3 26 -22 51 -43 36 -29 49 -34 56 -25 10 13 35 49 248 363 60 88 111 162
114 165 3 3 42 59 86 125 43 66 82 122 86 125 7 6 29 46 29 54 0 3 -7 6 -15 6
-8 0 -15 3 -15 8 0 4 -10 12 -23 18 -12 6 -55 28 -96 49 -71 38 -74 39 -88 20
-7 -11 -73 -114 -146 -230 -72 -115 -135 -214 -139 -220 -5 -5 -14 -18 -21
-27 -11 -15 -25 -7 -134 73 l-122 90 32 52 c37 61 74 118 85 132 4 6 29 46 56
90 27 44 60 94 73 112 l23 32 -72 42 c-40 23 -92 52 -114 65 l-42 23 -79 -122
c-43 -67 -99 -154 -123 -194 -25 -40 -50 -70 -57 -68 -18 6 -242 169 -243 177
0 4 7 13 15 22 8 8 15 17 15 20 0 3 30 51 66 108 36 57 78 121 92 143 14 22
33 52 43 67 21 31 23 29 -76 83 -38 21 -85 47 -103 57 l-32 18 -68 -103z"/>
<path d="M2408 3173 c-24 -21 -45 -40 -48 -43 -3 -3 -45 -41 -95 -85 -49 -44
-92 -82 -95 -85 -3 -3 -41 -36 -85 -75 -44 -38 -87 -76 -96 -85 -8 -8 -49 -44
-89 -80 -41 -36 -102 -90 -135 -120 -33 -30 -83 -75 -110 -99 -54 -47 -184
-162 -224 -199 l-25 -23 54 -51 c30 -28 99 -91 153 -141 53 -49 106 -97 117
-107 20 -18 212 -195 290 -270 27 -25 65 -60 86 -79 l37 -34 26 30 c14 17 36
43 48 59 12 16 36 46 53 68 16 21 30 42 30 46 0 4 -19 23 -42 43 -77 64 -121
102 -145 124 -13 11 -42 35 -63 53 -21 18 -50 42 -63 53 -13 12 -49 44 -80 70
l-56 49 72 73 c40 40 176 179 302 310 127 130 272 280 323 332 51 53 91 99 90
103 -2 5 -44 51 -95 105 l-92 96 -43 -38z"/>
<path d="M7577 2704 c-60 -47 -95 -80 -90 -87 10 -18 66 -100 75 -112 5 -5 40
-55 78 -110 38 -55 74 -107 80 -115 29 -41 182 -259 202 -288 13 -18 42 -57
66 -87 23 -29 42 -56 42 -59 0 -15 -327 136 -342 158 -4 6 -8 8 -8 4 0 -4 -16
1 -36 12 -19 11 -131 68 -247 127 -117 59 -213 110 -215 115 -2 4 -9 8 -15 8
-7 0 -45 17 -86 39 l-74 39 -51 -23 c-113 -51 -226 -105 -226 -109 0 -3 6 -18
43 -106 6 -14 11 -27 11 -30 1 -5 93 -229 122 -295 7 -16 27 -66 44 -110 17
-44 34 -84 38 -90 4 -5 7 -14 8 -20 1 -5 22 -59 48 -118 25 -59 46 -114 46
-120 0 -7 4 -17 9 -22 5 -6 21 -41 36 -80 15 -38 30 -74 33 -80 4 -5 7 -15 8
-20 1 -6 11 -31 21 -55 11 -25 28 -66 38 -92 10 -27 21 -48 25 -48 8 0 172 71
268 116 28 14 52 28 52 32 0 8 -59 129 -271 557 -88 175 -159 320 -159 322 0
1 20 -11 44 -28 25 -16 76 -42 113 -58 37 -15 88 -37 113 -49 25 -11 81 -35
125 -52 44 -17 86 -37 94 -43 8 -7 15 -11 15 -9 1 4 43 -11 91 -33 16 -7 51
-21 77 -31 27 -11 48 -23 48 -27 0 -5 5 -5 11 -1 6 3 14 3 18 -2 3 -5 44 -25
91 -43 47 -19 108 -45 135 -57 75 -33 127 -54 134 -54 4 0 18 9 31 20 14 10
75 56 135 101 154 114 150 109 122 139 -12 14 -58 70 -102 124 -44 55 -114
141 -155 191 -41 51 -131 162 -199 246 -69 85 -130 159 -135 165 -6 6 -22 26
-36 44 -14 18 -32 41 -40 51 -8 9 -26 32 -40 49 -14 17 -42 50 -62 73 -21 23
-38 45 -38 48 0 10 -48 59 -57 59 -4 0 -52 -35 -106 -76z"/>
<path d="M3445 2268 c-32 -62 -61 -117 -65 -123 -4 -5 -49 -91 -100 -190 -51
-99 -104 -200 -118 -225 -13 -25 -52 -99 -87 -165 -70 -136 -129 -247 -186
-351 l-39 -71 42 -19 c24 -10 46 -22 49 -27 3 -5 8 -8 10 -7 2 2 57 -23 123
-54 65 -31 120 -56 121 -54 3 3 31 64 71 156 8 17 22 49 31 70 10 20 18 39 18
42 1 3 11 28 24 55 12 28 29 65 37 83 8 18 18 31 22 28 48 -27 200 -85 272
-102 46 -11 215 -13 260 -3 115 25 232 117 275 214 35 79 38 89 36 99 -1 5 1
16 5 25 15 34 20 149 9 209 -23 132 -126 248 -280 313 -78 32 -102 43 -230
102 -130 60 -236 107 -240 107 -1 0 -28 -51 -60 -112z m243 -237 c9 -5 51 -25
92 -44 87 -40 136 -85 151 -139 20 -75 -12 -186 -69 -241 -36 -35 -102 -58
-127 -45 -13 8 -16 7 -11 -1 5 -8 0 -8 -20 -1 -15 6 -33 9 -41 6 -7 -3 -13 -1
-13 5 0 6 -4 8 -9 4 -5 -3 -12 -1 -16 5 -3 5 -12 10 -19 10 -8 0 -39 11 -71
25 -54 24 -56 27 -41 44 9 10 16 23 16 30 0 7 6 25 14 39 13 24 57 121 118
265 23 52 21 51 46 38z"/>
<path d="M5383 1949 c-126 -27 -238 -89 -323 -179 -78 -83 -98 -108 -132 -166
-31 -53 -81 -180 -76 -194 1 -3 -3 -14 -9 -25 -36 -68 -35 -365 1 -423 4 -7 9
-21 11 -32 9 -47 72 -142 142 -213 135 -137 387 -210 630 -183 129 14 316 80
374 132 8 8 19 14 24 14 18 0 133 129 165 185 19 33 35 62 36 65 0 3 8 30 18
61 25 84 27 97 28 184 1 187 -77 412 -191 545 -34 40 -95 100 -102 100 -3 0
-19 11 -35 25 -16 14 -41 31 -56 38 -16 6 -28 15 -28 19 0 5 -9 8 -20 8 -11 0
-20 5 -20 12 0 6 -3 8 -7 5 -3 -4 -17 0 -30 8 -13 9 -23 14 -23 12 0 -3 -24 1
-54 8 -76 18 -226 15 -323 -6z m252 -264 c47 -12 120 -62 158 -108 39 -49 82
-135 97 -198 6 -24 13 -53 16 -64 3 -11 6 -58 8 -105 7 -185 -53 -303 -186
-371 -59 -30 -168 -47 -240 -37 -62 8 -158 44 -158 59 0 5 -6 9 -13 9 -18 0
-65 60 -99 123 -36 70 -51 159 -45 270 12 225 119 383 287 425 40 10 130 8
175 -3z"/>
</g>
</svg>
