<?xml version="1.0" standalone="no"?>
<!DOCTYPE svg PUBLIC "-//W3C//DTD SVG 20010904//EN"
 "http://www.w3.org/TR/2001/REC-SVG-20010904/DTD/svg10.dtd">
<svg version="1.0" xmlns="http://www.w3.org/2000/svg"
 preserveAspectRatio="xMidYMid meet" width="107" height="87" viewBox="0 0 1100.000000 1100.000000"
 >

<g transform="translate(0.000000,1100.000000) scale(0.100000,-0.100000)"
fill="#000000" stroke="none">
<path d="M4602 10575 c-244 -34 -445 -65 -448 -67 -2 -3 0 -18 5 -34 5 -16 78
-317 162 -669 84 -352 155 -643 158 -647 4 -4 155 13 336 37 182 25 334 45
339 45 9 0 2 248 -7 257 -3 2 -105 -6 -226 -18 -122 -12 -224 -19 -227 -16 -7
7 -53 291 -48 296 3 3 98 15 212 27 114 13 209 23 211 24 5 0 -5 249 -10 254
-2 2 -105 -7 -228 -20 -123 -13 -226 -22 -229 -20 -9 9 -51 291 -44 297 4 3
106 16 227 28 121 12 237 24 258 27 l37 6 0 106 c0 116 -6 153 -24 151 -6 -1
-210 -30 -454 -64z"/>
<path d="M5935 10587 c-2 -6 -22 -151 -45 -322 -22 -170 -63 -476 -91 -679
-28 -202 -49 -370 -47 -371 6 -5 242 -45 245 -41 4 4 41 168 114 503 18 84 36
150 41 147 4 -3 8 -11 8 -19 0 -7 36 -143 80 -302 113 -408 117 -424 121 -427
9 -7 277 -106 287 -106 7 0 12 4 12 9 0 6 -43 189 -96 408 -53 219 -97 404
-98 411 0 7 155 113 346 235 190 122 349 225 352 228 3 3 -84 38 -193 78
l-200 73 -268 -218 c-147 -120 -285 -236 -305 -259 -21 -22 -38 -36 -38 -32 0
4 20 99 44 210 74 338 90 417 84 422 -4 4 -57 14 -321 60 -17 3 -29 0 -32 -8z"/>
<path d="M2735 9929 c-72 -44 -140 -87 -152 -95 -22 -14 -19 -19 230 -397 139
-210 311 -471 382 -579 72 -109 134 -198 139 -198 16 0 596 312 596 321 0 17
-89 224 -98 227 -5 1 -96 -40 -202 -93 -107 -52 -197 -95 -201 -95 -4 0 -70
114 -147 253 -335 601 -402 721 -410 729 -4 4 -66 -29 -137 -73z"/>
<path d="M7822 9780 c-129 -27 -230 -132 -268 -280 -29 -115 1 -237 99 -401
83 -139 111 -206 111 -265 1 -61 -18 -100 -59 -121 -117 -61 -317 79 -402 282
-12 27 -25 51 -30 52 -12 4 -156 -245 -150 -259 15 -41 110 -147 179 -203 141
-112 270 -168 383 -166 120 2 208 44 302 145 76 80 103 146 103 247 0 93 -28
174 -124 362 -64 125 -76 156 -76 197 0 41 5 56 29 82 26 29 35 33 79 32 75
-1 162 -48 246 -132 70 -71 127 -151 148 -209 7 -18 15 -33 19 -33 9 0 182
186 187 200 7 19 -89 139 -177 221 -196 184 -434 283 -599 249z"/>
<path d="M1430 8773 c-63 -80 -121 -156 -129 -168 -13 -21 -8 -30 84 -151 126
-164 302 -394 577 -754 120 -157 222 -286 226 -287 5 -2 147 217 160 249 2 4
-44 59 -102 120 -58 62 -106 116 -106 120 0 5 234 309 267 348 2 2 68 -28 147
-67 l143 -71 98 98 c55 55 97 102 94 104 -3 3 -174 81 -380 174 -206 93 -505
228 -665 301 -160 72 -293 131 -295 131 -2 0 -56 -66 -119 -147z m500 -312
c129 -50 238 -95 242 -99 9 -9 -181 -261 -197 -261 -5 0 -82 101 -170 225 -88
124 -168 232 -177 241 -32 29 -19 34 25 9 23 -13 148 -65 277 -115z"/>
<path d="M9055 8693 c-44 -36 -82 -69 -83 -74 -2 -5 10 -27 27 -48 17 -21 31
-44 31 -50 0 -6 -163 -133 -362 -282 l-362 -272 -30 37 c-17 20 -35 36 -39 36
-17 0 -178 -134 -175 -146 4 -17 242 -363 250 -364 12 0 198 115 198 123 0 4
-11 25 -25 46 l-24 39 385 246 c211 135 386 246 388 246 2 0 18 -22 36 -50 18
-27 34 -50 37 -50 13 0 193 115 193 123 0 16 -344 507 -354 506 -6 0 -47 -30
-91 -66z"/>
<path d="M1060 6927 c-51 -27 -90 -90 -90 -147 0 -87 83 -170 170 -170 87 0
170 83 170 170 0 87 -83 170 -170 170 -20 0 -56 -10 -80 -23z"/>
<path d="M9360 6867 c-51 -27 -90 -90 -90 -147 0 -57 39 -120 90 -147 24 -13
60 -23 80 -23 57 0 120 39 147 90 13 24 23 60 23 80 0 57 -39 120 -90 147 -24
13 -60 23 -80 23 -20 0 -56 -10 -80 -23z"/>
<path d="M9086 5561 c-3 -20 -8 -82 -12 -137 l-7 -102 39 -6 c22 -3 95 -10
164 -16 69 -6 175 -15 235 -20 61 -5 193 -16 295 -25 102 -9 194 -16 205 -18
36 -4 -100 -71 -345 -170 -129 -52 -291 -118 -360 -146 -69 -29 -171 -70 -228
-92 -57 -23 -105 -46 -107 -53 -2 -6 -22 -71 -44 -145 -22 -74 -40 -136 -38
-137 2 -2 291 -100 1005 -341 172 -58 315 -103 318 -100 7 7 96 296 98 317 1
10 -50 28 -194 68 -107 29 -249 68 -315 86 -66 18 -191 51 -277 72 -87 22
-158 42 -158 45 0 4 18 9 40 13 22 3 269 121 550 261 l510 255 1 32 c0 18 6
98 13 178 7 80 10 148 7 151 -3 3 -307 18 -676 33 -368 15 -680 28 -691 30
-18 2 -23 -3 -28 -33z"/>
<path d="M1295 5575 c-282 -21 -459 -34 -680 -50 -414 -29 -510 -37 -514 -41
-7 -6 21 -344 29 -349 7 -4 77 3 459 50 113 13 206 23 209 21 2 -2 -10 -12
-26 -22 -25 -14 -432 -449 -527 -562 l-28 -33 43 -157 c58 -217 81 -292 88
-292 4 0 30 33 59 73 28 39 94 129 145 198 51 69 145 198 210 285 64 88 122
167 130 177 12 17 16 16 73 -7 33 -14 123 -50 200 -79 77 -30 218 -85 313
-122 95 -37 175 -65 178 -63 4 4 -72 307 -79 314 -3 3 -188 82 -352 149 -179
74 -324 134 -350 144 -15 6 -5 10 40 15 33 4 110 13 170 21 61 7 173 21 250
30 77 9 149 18 160 20 19 4 20 9 12 117 -11 151 -16 178 -30 177 -7 -1 -88 -7
-182 -14z"/>
<path d="M1732 4080 c-56 -27 -102 -52 -102 -55 0 -3 9 -24 21 -47 11 -22 17
-44 12 -48 -9 -8 -800 -410 -808 -410 -3 0 -18 27 -35 60 l-30 59 -97 -45
c-54 -25 -102 -49 -107 -54 -4 -4 8 -37 27 -72 19 -34 85 -155 147 -268 62
-113 119 -215 126 -227 l14 -23 99 66 99 66 -34 56 c-18 31 -30 59 -26 63 5 5
735 444 774 465 3 2 18 -16 32 -41 15 -25 29 -45 32 -45 11 0 194 122 194 129
0 5 -27 57 -60 117 -33 60 -83 153 -112 206 -29 54 -56 98 -59 98 -3 0 -51
-22 -107 -50z"/>
<path d="M8494 3718 c-65 -95 -155 -226 -201 -292 -46 -65 -83 -121 -83 -125
0 -4 91 -84 203 -177 111 -93 312 -262 446 -374 134 -113 283 -238 332 -278
l88 -72 84 122 c233 339 480 703 483 712 5 14 -215 131 -226 120 -4 -5 -53
-81 -108 -169 -56 -88 -126 -199 -157 -247 l-56 -88 -112 81 c-62 45 -118 86
-124 93 -10 9 3 35 59 121 121 188 188 296 188 304 0 4 -39 29 -87 56 -49 27
-98 55 -109 62 -21 13 -27 6 -145 -181 -68 -108 -126 -196 -130 -196 -4 0
-232 161 -248 176 -2 2 29 54 69 116 40 62 95 147 121 189 27 41 49 80 49 86
0 6 -39 33 -87 59 -49 26 -98 54 -110 61 -20 13 -26 7 -139 -159z"/>
<path d="M2340 3113 c-58 -52 -162 -146 -231 -207 -268 -237 -587 -522 -643
-573 l-59 -55 29 -27 c27 -26 267 -247 544 -503 69 -63 131 -122 139 -131 14
-17 41 -23 41 -9 0 4 32 47 70 96 39 49 70 92 70 96 0 3 -99 91 -220 194 -121
103 -220 191 -220 196 0 4 141 153 313 330 171 177 347 359 390 406 l79 84
-94 100 c-51 55 -95 100 -98 99 -3 0 -52 -43 -110 -96z"/>
<path d="M7590 2714 c-47 -36 -91 -71 -98 -78 -10 -10 33 -78 229 -357 133
-189 256 -363 275 -386 19 -23 34 -44 34 -47 0 -19 -195 75 -797 385 -116 60
-219 109 -228 109 -16 0 -254 -105 -268 -119 -4 -4 20 -75 54 -157 34 -82 81
-197 105 -256 24 -60 65 -159 90 -220 26 -62 66 -160 89 -218 24 -58 66 -161
94 -230 29 -69 59 -143 68 -165 9 -22 18 -42 19 -44 4 -5 305 127 318 139 8 8
-216 478 -366 768 -32 62 -58 115 -58 118 0 3 20 -8 43 -25 41 -28 102 -55
482 -216 88 -37 254 -108 368 -156 114 -49 211 -89 214 -89 3 0 75 52 160 115
l153 115 -91 113 c-50 61 -164 201 -253 311 -88 109 -207 255 -264 325 -56 69
-140 172 -185 228 -45 56 -86 102 -92 102 -5 0 -48 -29 -95 -65z"/>
<path d="M3276 1948 c-124 -238 -271 -516 -326 -618 l-99 -185 171 -83 c94
-46 172 -81 174 -79 3 3 86 191 157 355 17 39 35 72 40 72 5 0 48 -15 96 -34
224 -90 397 -99 538 -30 62 30 144 108 173 164 56 110 76 283 44 391 -18 60
-39 95 -93 153 -50 53 -95 80 -256 151 -77 35 -195 88 -263 119 -68 31 -125
56 -126 56 -2 0 -105 -195 -230 -432z m499 42 c147 -68 189 -145 150 -276 -18
-63 -74 -129 -122 -145 -20 -6 -61 -9 -92 -6 -55 5 -221 63 -221 77 0 4 30 74
66 156 36 82 75 170 86 196 23 53 13 53 133 -2z"/>
<path d="M5460 1963 c-192 -25 -338 -108 -461 -261 -102 -126 -157 -265 -179
-446 -25 -210 24 -373 155 -514 76 -82 160 -133 285 -174 131 -42 307 -50 455
-19 200 42 381 158 465 300 63 105 81 170 87 301 8 185 -40 355 -144 513 -80
121 -231 237 -363 278 -65 21 -224 32 -300 22z m163 -277 c74 -17 130 -57 183
-129 53 -71 79 -140 101 -263 14 -80 15 -108 5 -174 -21 -149 -79 -232 -200
-288 -51 -24 -69 -27 -167 -27 -98 0 -116 3 -166 26 -134 63 -209 201 -209
385 0 156 41 282 120 368 53 57 92 82 161 100 69 19 100 19 172 2z"/>
</g>
</svg>
